<svg xmlns="http://www.w3.org/2000/svg" viewBox="0 0 750 471" fill="none">
  <rect width="750" height="471" rx="40" fill="#006FCF"/>
  <path fill="#fff" d="M0 235.5h750M79.8 293.9l33.3-68.5h37.7l33.4 68.5h-34.8l-6.2-14.8h-36.4l-6.2 14.8H79.8zm45.1-34.7l-10.9-26.1-10.9 26.1h21.8zM184.5 293.9v-68.5h46.8l15.7 44.2 15.5-44.2h46.8v68.5H284v-50.3l-18.1 50.3h-27.2l-18.1-50.3v50.3h-36.1zM318.4 293.9v-68.5h84.2v19.8h-48.1v7.4h47v19.1h-47v7h49.2v15.2h-85.3zM415.5 293.9v-68.5h57.9c18.5 0 31 8.9 31 24.1 0 10.4-5.9 18.8-15.7 22.3l18.5 22.1h-42.3l-13.3-18.1h-10.5v18.1h-25.6zm36.1-34.2h18c6.2 0 10.2-2.8 10.2-7.8 0-4.9-4-7.7-10.2-7.7h-18v15.5zM515.5 293.9v-68.5h36.1v68.5h-36.1zM560.4 259.7c0-22.1 16.9-36.3 44.1-36.3 11.5 0 23.2 2.4 31.9 7v21.4c-8.9-5.5-18.9-8.5-28.6-8.5-10.5 0-18.1 4.5-18.1 13.7 0 8.7 6.4 13.3 17.2 13.3 9.6 0 19.9-3.3 29.5-9v21.5c-8.7 4.6-20.4 7-32.1 7-27.3 0-43.9-13.5-43.9-30.1z"/>
</svg>
