<svg xmlns="http://www.w3.org/2000/svg" viewBox="0 0 750 471" fill="none">
  <rect width="750" height="471" rx="40" fill="#fff"/>
  <path fill="#FFCB05" d="M243.1 158.2c-28.5 11.7-48.5 39.9-48.5 72.7 0 43.4 35.2 78.5 78.6 78.5 17.2 0 33.1-5.5 46-14.9l-28.3-35.2c-5.1 3.6-11.3 5.7-18 5.7-17.3 0-31.3-14-31.3-31.3 0-13.5 8.5-25 20.4-29.4l-18.9-46.1z"/>
  <path fill="#00A4E0" d="M375 115c-66.5 0-120.4 53.9-120.4 120.4S308.5 355.8 375 355.8s120.4-53.9 120.4-120.4S441.5 115 375 115zm0 191.5c-39.2 0-71.1-31.9-71.1-71.1s31.9-71.1 71.1-71.1 71.1 31.9 71.1 71.1-31.9 71.1-71.1 71.1z"/>
  <path fill="#EF4123" d="M506.9 158.2l-18.9 46.1c11.9 4.4 20.4 15.9 20.4 29.4 0 17.3-14 31.3-31.3 31.3-6.7 0-12.9-2.1-18-5.7l-28.3 35.2c12.9 9.4 28.8 14.9 46 14.9 43.4 0 78.6-35.2 78.6-78.5 0-32.8-20-61-48.5-72.7z"/>
</svg>
