<svg xmlns="http://www.w3.org/2000/svg" viewBox="0 0 512 512" fill="#32BCAD">
  <path d="M242.4 292.5C247.8 287.1 257.1 287.1 262.5 292.5L339.5 369.5C353.1 383.1 373.3 383.1 386.9 369.5L463.9 292.5C469.3 287.1 478.6 287.1 484 292.5C489.4 297.9 489.4 307.2 484 312.6L407 389.6C383.8 412.8 346.6 412.8 323.4 389.6L256 322.2L188.6 389.6C165.4 412.8 128.2 412.8 105 389.6L28 312.6C22.6 307.2 22.6 297.9 28 292.5C33.4 287.1 42.7 287.1 48.1 292.5L125.1 369.5C138.7 383.1 158.9 383.1 172.5 369.5L249.5 292.5C254.9 287.1 264.2 287.1 269.6 292.5M242.4 219.5C247.8 214.1 257.1 214.1 262.5 219.5L339.5 296.5C353.1 310.1 373.3 310.1 386.9 296.5L463.9 219.5C469.3 214.1 478.6 214.1 484 219.5C489.4 224.9 489.4 234.2 484 239.6L407 316.6C383.8 339.8 346.6 339.8 323.4 316.6L256 249.2L188.6 316.6C165.4 339.8 128.2 339.8 105 316.6L28 239.6C22.6 234.2 22.6 224.9 28 219.5C33.4 214.1 42.7 214.1 48.1 219.5L125.1 296.5C138.7 310.1 158.9 310.1 172.5 296.5L249.5 219.5C254.9 214.1 264.2 214.1 269.6 219.5"/>
</svg>
