<svg xmlns="http://www.w3.org/2000/svg" viewBox="0 0 750 471" fill="none">
  <rect width="750" height="471" rx="40" fill="#fff"/>
  <path fill="#1A1F71" d="M278.2 334.2h-49.3l30.8-190.1h49.3l-30.8 190.1zM524.3 148.8c-9.7-3.9-25.2-8-44.3-8-48.8 0-83.2 26-83.4 63.1-.3 27.5 24.5 42.8 43.2 52 19.2 9.4 25.6 15.4 25.5 23.8-.1 12.9-15.3 18.8-29.4 18.8-19.7 0-30.1-2.9-46.3-10l-6.4-3-6.9 43c11.5 5.3 32.7 9.9 54.8 10.1 51.9 0 85.7-25.7 86.1-65.3.2-21.8-13-38.4-41.4-52.1-17.3-8.8-27.8-14.7-27.7-23.7 0-7.9 8.9-16.4 28.2-16.4 16.1-.2 27.8 3.4 36.9 7.3l4.4 2.2 6.7-41.8zM661.3 144.1h-38.2c-11.8 0-20.7 3.4-25.8 15.9l-73.2 175h51.8s8.5-23.6 10.4-28.7h63.4c1.5 6.7 6 28.7 6 28.7h45.8l-40.2-190.9zm-60.5 123.4c4.1-11.1 19.8-53.8 19.8-53.8-.3.5 4.1-11.2 6.6-18.4l3.3 16.6s9.5 45.9 11.5 55.6h-41.2zM206.4 144.1l-48.3 129.8-5.2-26.5c-9-30.5-37-63.5-68.3-80l44.2 167.6h52.3l77.7-190.9h-52.4z"/>
  <path fill="#F9A533" d="M131.9 144.1H50.3l-.6 3.8c62.2 15.9 103.4 54.4 120.5 100.6l-17.4-88.5c-3-12.1-11.7-15.5-20.9-15.9z"/>
</svg>
